<svg width="512" height="512" viewBox="0 0 512 512" fill="none" xmlns="http://www.w3.org/2000/svg">
  <rect width="512" height="512" rx="108" fill="#1a1a1a"/>
  <rect x="40" y="40" width="432" height="432" rx="80" fill="#0a0a0a"/>
  <path d="M160 180C160 168.954 168.954 160 180 160H332C343.046 160 352 168.954 352 180V200C352 211.046 343.046 220 332 220H180C168.954 220 160 211.046 160 200V180Z" fill="#3b82f6"/>
  <path d="M160 260C160 248.954 168.954 240 180 240H280C291.046 240 300 248.954 300 260V280C300 291.046 291.046 300 280 300H180C168.954 300 160 291.046 160 280V260Z" fill="#6366f1" fill-opacity="0.7"/>
  <path d="M160 340C160 328.954 168.954 320 180 320H240C251.046 320 260 328.954 260 340V360C260 371.046 251.046 380 240 380H180C168.954 380 160 371.046 160 360V340Z" fill="#8b5cf6" fill-opacity="0.5"/>
</svg>
